<svg width="36" height="36" viewBox="0 0 36 36" fill="none" xmlns="http://www.w3.org/2000/svg">
<path d="M20.9313 17.891L34.6722 4.17186C35.0829 3.76115 35.3137 3.20411 35.3137 2.62328C35.3137 2.04245 35.0829 1.48541 34.6722 1.0747C34.2615 0.663992 33.7045 0.433258 33.1236 0.433258C32.5428 0.433258 31.9858 0.663992 31.5751 1.0747L17.856 14.8156L4.13685 1.0747C3.72615 0.663992 3.16911 0.433259 2.58828 0.433259C2.00745 0.433259 1.4504 0.663992 1.0397 1.0747C0.628987 1.48541 0.398254 2.04245 0.398254 2.62328C0.398254 3.20411 0.628987 3.76115 1.0397 4.17186L14.7806 17.891L1.0397 31.6101C0.835265 31.8128 0.673005 32.0541 0.562273 32.3198C0.451542 32.5856 0.394531 32.8707 0.394531 33.1586C0.394531 33.4466 0.451542 33.7317 0.562273 33.9974C0.673005 34.2632 0.835265 34.5045 1.0397 34.7072C1.24246 34.9117 1.48369 35.0739 1.74948 35.1846C2.01526 35.2954 2.30034 35.3524 2.58828 35.3524C2.87621 35.3524 3.16129 35.2954 3.42707 35.1846C3.69286 35.0739 3.93409 34.9117 4.13685 34.7072L17.856 20.9663L31.5751 34.7072C31.7778 34.9117 32.0191 35.0739 32.2848 35.1846C32.5506 35.2954 32.8357 35.3524 33.1236 35.3524C33.4116 35.3524 33.6966 35.2954 33.9624 35.1846C34.2282 35.0739 34.4695 34.9117 34.6722 34.7072C34.8766 34.5045 35.0389 34.2632 35.1496 33.9974C35.2604 33.7317 35.3174 33.4466 35.3174 33.1586C35.3174 32.8707 35.2604 32.5856 35.1496 32.3198C35.0389 32.0541 34.8766 31.8128 34.6722 31.6101L20.9313 17.891Z" fill="#06C7F2"/>
</svg>
