<svg width="47" height="33" viewBox="0 0 47 33" fill="none" xmlns="http://www.w3.org/2000/svg">
<path d="M3.08334 32.25C2.3514 32.25 1.73829 31.998 1.24401 31.494C0.749731 30.99 0.501731 30.367 0.500009 29.625C0.498287 28.883 0.746287 28.26 1.24401 27.756C1.74173 27.252 2.35484 27 3.08334 27H44.4167C45.1486 27 45.7626 27.252 46.2586 27.756C46.7546 28.26 47.0017 28.883 47 29.625C46.9983 30.367 46.7503 30.9908 46.256 31.4966C45.7617 32.0023 45.1486 32.2535 44.4167 32.25H3.08334ZM3.08334 19.125C2.3514 19.125 1.73829 18.873 1.24401 18.369C0.749731 17.865 0.501731 17.242 0.500009 16.5C0.498287 15.758 0.746287 15.135 1.24401 14.631C1.74173 14.127 2.35484 13.875 3.08334 13.875H44.4167C45.1486 13.875 45.7626 14.127 46.2586 14.631C46.7546 15.135 47.0017 15.758 47 16.5C46.9983 17.242 46.7503 17.8658 46.256 18.3716C45.7617 18.8773 45.1486 19.1285 44.4167 19.125H3.08334ZM3.08334 5.99997C2.3514 5.99997 1.73829 5.74797 1.24401 5.24397C0.749731 4.73997 0.501731 4.11697 0.500009 3.37497C0.498287 2.63297 0.746287 2.00997 1.24401 1.50597C1.74173 1.00197 2.35484 0.749969 3.08334 0.749969H44.4167C45.1486 0.749969 45.7626 1.00197 46.2586 1.50597C46.7546 2.00997 47.0017 2.63297 47 3.37497C46.9983 4.11697 46.7503 4.74084 46.256 5.24659C45.7617 5.75234 45.1486 6.00347 44.4167 5.99997H3.08334Z" fill="#06C7F2"/>
</svg>
