<svg width="101" height="81" viewBox="0 0 101 81" fill="none" xmlns="http://www.w3.org/2000/svg">
<path d="M80.5237 30.3011L79.2423 32.571C78.7736 33.4124 77.7735 33.7616 76.8828 33.4282C75.0389 32.7298 73.3512 31.7297 71.8667 30.4757C71.1479 29.8725 70.9604 28.809 71.4292 27.9835L72.7106 25.7136C71.6323 24.4437 70.7885 22.9674 70.226 21.3642H67.6476C66.7101 21.3642 65.8975 20.6816 65.7412 19.7292C65.4287 17.8243 65.4131 15.8242 65.7412 13.84C65.8975 12.8876 66.7101 12.1891 67.6476 12.1891H70.226C70.7885 10.5859 71.6323 9.10959 72.7106 7.83969L71.4292 5.56973C70.9604 4.7443 71.1323 3.68075 71.8667 3.07755C73.3512 1.82352 75.0545 0.823471 76.8828 0.125025C77.7735 -0.208325 78.7736 0.140898 79.2423 0.982209L80.5237 3.25216C82.1645 2.95056 83.8365 2.95056 85.4772 3.25216L86.7586 0.982209C87.2274 0.140898 88.2275 -0.208325 89.1182 0.125025C90.9621 0.823471 92.6497 1.82352 94.1342 3.07755C94.853 3.68075 95.0405 4.7443 94.5717 5.56973L93.2904 7.83969C94.3686 9.10959 95.2124 10.5859 95.775 12.1891H98.3533C99.2909 12.1891 100.103 12.8717 100.26 13.8241C100.572 15.729 100.588 17.7291 100.26 19.7133C100.103 20.6657 99.2909 21.3642 98.3533 21.3642H95.775C95.2124 22.9674 94.3686 24.4437 93.2904 25.7136L94.5717 27.9835C95.0405 28.809 94.8686 29.8725 94.1342 30.4757C92.6497 31.7297 90.9464 32.7298 89.1182 33.4282C88.2275 33.7616 87.2274 33.4124 86.7586 32.571L85.4772 30.3011C83.8521 30.6027 82.1645 30.6027 80.5237 30.3011ZM78.8829 20.9673C84.8991 25.6659 91.759 18.6974 87.1336 12.5859C81.1175 7.87143 74.2576 14.8559 78.8829 20.9673ZM60.8658 45.3971L66.1319 48.0639C67.7101 48.9845 68.3977 50.937 67.7726 52.6831C66.3819 56.5246 63.6473 60.0486 61.1158 63.1281C59.9595 64.5408 57.9593 64.8901 56.3811 63.9694L51.8338 61.3026C49.3336 63.4773 46.4271 65.2075 43.255 66.3346V71.6682C43.255 73.5095 41.958 75.0969 40.1766 75.4144C36.3325 76.0811 32.301 76.1128 28.3163 75.4144C26.5192 75.0969 25.191 73.5254 25.191 71.6682V66.3346C22.0189 65.1917 19.1124 63.4773 16.6122 61.3026L12.0649 63.9535C10.5023 64.8742 8.4865 64.525 7.33016 63.1122C4.7987 60.0327 2.1266 56.5087 0.735862 52.6831C0.11081 50.9529 0.798367 49.0004 2.37662 48.0639L7.58018 45.3971C6.97075 42.0794 6.97075 38.6666 7.58018 35.3331L2.37662 32.6504C0.798367 31.7297 0.0951838 29.7773 0.735862 28.047C2.1266 24.2056 4.7987 20.6816 7.33016 17.6021C8.4865 16.1893 10.4867 15.8401 12.0649 16.7608L16.6122 19.4275C19.1124 17.2528 22.0189 15.5226 25.191 14.3956V9.04609C25.191 7.22061 26.4724 5.63323 28.2538 5.31575C32.0978 4.64905 36.145 4.61731 40.1297 5.29988C41.9268 5.61736 43.255 7.18886 43.255 9.04609V14.3797C46.4271 15.5226 49.3336 17.237 51.8338 19.4117L56.3811 16.7449C57.9437 15.8242 59.9595 16.1734 61.1158 17.5862C63.6473 20.6657 66.3038 24.1897 67.6945 28.0311C68.3196 29.7614 67.7101 31.7139 66.1319 32.6504L60.8658 35.3172C61.4753 38.6507 61.4753 42.0636 60.8658 45.3971ZM42.4893 48.7464C51.7401 36.5236 38.0046 22.5706 25.9723 31.9678C16.7216 44.1907 30.4571 58.1437 42.4893 48.7464ZM80.5237 77.7478L79.2423 80.0178C78.7736 80.8591 77.7735 81.2083 76.8828 80.875C75.0389 80.1765 73.3512 79.1765 71.8667 77.9225C71.1479 77.3192 70.9604 76.2557 71.4292 75.4303L72.7106 73.1603C71.6323 71.8904 70.7885 70.4142 70.226 68.8109H67.6476C66.7101 68.8109 65.8975 68.1283 65.7412 67.1759C65.4287 65.271 65.4131 63.2709 65.7412 61.2867C65.8975 60.3343 66.7101 59.6358 67.6476 59.6358H70.226C70.7885 58.0326 71.6323 56.5563 72.7106 55.2864L71.4292 53.0165C70.9604 52.191 71.1323 51.1275 71.8667 50.5243C73.3512 49.2703 75.0545 48.2702 76.8828 47.5718C77.7735 47.2384 78.7736 47.5876 79.2423 48.429L80.5237 50.6989C82.1645 50.3973 83.8365 50.3973 85.4772 50.6989L86.7586 48.429C87.2274 47.5876 88.2275 47.2384 89.1182 47.5718C90.9621 48.2702 92.6497 49.2703 94.1342 50.5243C94.853 51.1275 95.0405 52.191 94.5717 53.0165L93.2904 55.2864C94.3686 56.5563 95.2124 58.0326 95.775 59.6358H98.3533C99.2909 59.6358 100.103 60.3184 100.26 61.2709C100.572 63.1757 100.588 65.1758 100.26 67.16C100.103 68.1125 99.2909 68.8109 98.3533 68.8109H95.775C95.2124 70.4142 94.3686 71.8904 93.2904 73.1603L94.5717 75.4303C95.0405 76.2557 94.8686 77.3192 94.1342 77.9225C92.6497 79.1765 90.9464 80.1765 89.1182 80.875C88.2275 81.2083 87.2274 80.8591 86.7586 80.0178L85.4772 77.7478C83.8521 78.0494 82.1645 78.0494 80.5237 77.7478ZM78.8829 68.3982C84.8991 73.0968 91.759 66.1282 87.1336 60.0168C81.1175 55.3182 74.2576 62.2868 78.8829 68.3982Z" fill="url(#paint0_linear_136_66)"/>
<defs>
<linearGradient id="paint0_linear_136_66" x1="50.5" y1="0" x2="50.5" y2="81" gradientUnits="userSpaceOnUse">
<stop stop-color="#06C7F2"/>
<stop offset="1" stop-color="#023D75"/>
</linearGradient>
</defs>
</svg>
