<svg width="56" height="57" viewBox="0 0 56 57" fill="none" xmlns="http://www.w3.org/2000/svg">
<path fill-rule="evenodd" clip-rule="evenodd" d="M28.0554 0.147949C12.8959 0.147949 0.563203 12.8145 0.563203 28.3874C0.554437 34.3354 2.38836 40.1321 5.79972 44.9392L2.37366 55.4313L12.9429 51.9626C17.4276 55.0151 22.6911 56.6379 28.0715 56.6268C43.231 56.6268 55.5637 43.959 55.5637 28.3874C55.5637 12.8157 43.2322 0.147949 28.0715 0.147949H28.0554ZM20.3783 14.4912C19.8444 13.1804 19.441 13.131 18.6332 13.0969C18.3265 13.0769 18.0192 13.0663 17.7119 13.0651C16.66 13.0651 15.5611 13.3805 14.8988 14.077C14.091 14.9242 12.087 16.8986 12.087 20.9498C12.087 25.001 14.963 28.9192 15.3515 29.4675C15.756 30.0146 20.9604 38.4476 29.0409 41.8846C35.3602 44.5744 37.236 44.325 38.674 44.0096C40.7755 43.5449 43.4098 41.9505 44.0721 40.0255C44.7355 38.0993 44.7355 36.4556 44.5418 36.1073C44.347 35.759 43.8131 35.5602 43.0064 35.1448C42.1975 34.7295 38.2695 32.7374 37.5258 32.4715C36.7994 32.1891 36.105 32.2891 35.555 33.0857C34.7793 34.1988 34.0195 35.3272 33.4054 36.0073C32.9207 36.5391 32.1278 36.6062 31.4655 36.3226C30.5763 35.9414 28.0875 35.0448 25.0167 32.2397C22.6402 30.064 21.0245 27.359 20.5559 26.5447C20.0861 25.7152 20.5077 25.2339 20.879 24.7856C21.2835 24.2703 21.6708 23.9055 22.0753 23.4243C22.4786 22.9419 22.7055 22.6936 22.9644 22.13C23.2394 21.5817 23.0447 21.0169 22.8499 20.6003C22.6574 20.1861 21.0406 16.135 20.3783 14.4924V14.4912Z" fill="#06C7F2"/>
</svg>
