<svg width="100" height="70" viewBox="0 0 100 70" fill="none" xmlns="http://www.w3.org/2000/svg">
<path d="M15 30C20.5156 30 25 25.5156 25 20C25 14.4844 20.5156 10 15 10C9.48438 10 5 14.4844 5 20C5 25.5156 9.48438 30 15 30ZM85 30C90.5156 30 95 25.5156 95 20C95 14.4844 90.5156 10 85 10C79.4844 10 75 14.4844 75 20C75 25.5156 79.4844 30 85 30ZM90 35H80C77.25 35 74.7656 36.1094 72.9531 37.9063C79.25 41.3594 83.7188 47.5938 84.6875 55H95C97.7656 55 100 52.7656 100 50V45C100 39.4844 95.5156 35 90 35ZM50 35C59.6719 35 67.5 27.1719 67.5 17.5C67.5 7.82812 59.6719 0 50 0C40.3281 0 32.5 7.82812 32.5 17.5C32.5 27.1719 40.3281 35 50 35ZM62 40H60.7031C57.4531 41.5625 53.8437 42.5 50 42.5C46.1562 42.5 42.5625 41.5625 39.2969 40H38C28.0625 40 20 48.0625 20 58V62.5C20 66.6406 23.3594 70 27.5 70H72.5C76.6406 70 80 66.6406 80 62.5V58C80 48.0625 71.9375 40 62 40ZM27.0469 37.9063C25.2344 36.1094 22.75 35 20 35H10C4.48438 35 0 39.4844 0 45V50C0 52.7656 2.23437 55 5 55H15.2969C16.2813 47.5938 20.75 41.3594 27.0469 37.9063Z" fill="url(#paint0_linear_140_112)"/>
<defs>
<linearGradient id="paint0_linear_140_112" x1="50" y1="0" x2="50" y2="70" gradientUnits="userSpaceOnUse">
<stop stop-color="#06C7F2"/>
<stop offset="1" stop-color="#023D75"/>
</linearGradient>
</defs>
</svg>
