<svg width="101" height="78" viewBox="0 0 101 78" fill="none" xmlns="http://www.w3.org/2000/svg">
<path d="M72.7222 27.8571C72.7222 12.4661 56.559 0 36.6111 0C16.6632 0 0.5 12.4661 0.5 27.8571C0.5 33.829 2.94792 39.3308 7.09722 43.875C4.77083 49.133 0.934028 53.3116 0.881944 53.3638C0.5 53.7643 0.395833 54.3563 0.621528 54.8786C0.847222 55.4009 1.33333 55.7143 1.88889 55.7143C8.24305 55.7143 13.5035 53.5728 17.2882 51.3616C22.8785 54.0951 29.4931 55.7143 36.6111 55.7143C56.559 55.7143 72.7222 43.2482 72.7222 27.8571ZM93.9028 66.1607C98.0521 61.6339 100.5 56.1147 100.5 50.1429C100.5 38.4951 91.2118 28.5187 78.0521 24.3576C78.2083 25.5067 78.2778 26.6732 78.2778 27.8571C78.2778 46.2951 59.5799 61.2857 36.6111 61.2857C34.7361 61.2857 32.9132 61.1464 31.1076 60.9549C36.5764 70.9661 49.4236 78 64.3889 78C71.5069 78 78.1215 76.3982 83.7118 73.6473C87.4965 75.8585 92.7569 78 99.1111 78C99.6667 78 100.17 77.6692 100.378 77.1643C100.604 76.6594 100.5 76.0674 100.118 75.6496C100.066 75.5973 96.2292 71.4362 93.9028 66.1607Z" fill="url(#paint0_linear_140_105)"/>
<defs>
<linearGradient id="paint0_linear_140_105" x1="50.5" y1="0" x2="50.5" y2="78" gradientUnits="userSpaceOnUse">
<stop stop-color="#06C7F2"/>
<stop offset="1" stop-color="#023D75"/>
</linearGradient>
</defs>
</svg>
