<svg width="13" height="15" viewBox="0 0 13 15" fill="none" xmlns="http://www.w3.org/2000/svg">
<path d="M6.02557 14.0717C5.85057 14.0717 5.67557 14.0415 5.50057 13.9812C5.32557 13.9208 5.16932 13.8302 5.03182 13.7095C4.21932 12.985 3.50057 12.2787 2.87557 11.5905C2.25057 10.9022 1.72882 10.2353 1.31032 9.58954C0.891824 8.94382 0.573074 8.322 0.354074 7.72408C0.135074 7.12617 0.0255737 6.55555 0.0255737 6.01221C0.0255737 4.20108 0.628824 2.75822 1.83532 1.68362C3.04182 0.609017 4.43857 0.0717163 6.02557 0.0717163C7.61257 0.0717163 9.00957 0.609017 10.2166 1.68362C11.4236 2.75822 12.0266 4.20108 12.0256 6.01221C12.0256 6.55555 11.9163 7.12617 11.6978 7.72408C11.4793 8.322 11.1606 8.94382 10.7416 9.58954C10.3226 10.2353 9.80057 10.9022 9.17557 11.5905C8.55057 12.2787 7.83182 12.985 7.01932 13.7095C6.88182 13.8302 6.72557 13.9208 6.55057 13.9812C6.37557 14.0415 6.20057 14.0717 6.02557 14.0717ZM6.02557 7.31622C6.43807 7.31622 6.79132 7.17447 7.08532 6.89097C7.37932 6.60746 7.52607 6.26625 7.52557 5.86732C7.52507 5.46839 7.37832 5.12741 7.08532 4.84439C6.79232 4.56138 6.43907 4.41938 6.02557 4.41842C5.61207 4.41745 5.25907 4.55944 4.96657 4.84439C4.67407 5.12934 4.52707 5.47032 4.52557 5.86732C4.52407 6.26432 4.67107 6.60553 4.96657 6.89097C5.26207 7.1764 5.61507 7.31815 6.02557 7.31622Z" fill="#06C7F2"/>
</svg>
