<svg width="384" height="235" viewBox="0 0 384 235" fill="none" xmlns="http://www.w3.org/2000/svg">
<path d="M49.779 117.52L49.4371 116.97L48.9915 117.44L4.94349 163.892L49.3694 102.878L67.0178 125.355L67.4257 125.875L67.815 125.341L107.178 71.3671L133.249 99.9645L133.708 100.468L134.05 99.8792L191.406 1.35586L260.789 116.831L261.093 117.337L261.542 116.955L308.097 77.344L378.113 164.512L307.312 94.4309L306.971 94.0927L306.619 94.4208L256.503 141.215L191.822 38.84L191.389 38.1546L190.971 38.8492L135.955 130.246L107.516 96.8826L107.123 96.422L106.745 96.8945L67.4625 145.97L49.779 117.52Z" fill="url(#paint0_linear_111_274)" stroke="url(#paint1_linear_111_274)"/>
<path d="M305.157 234.394L314.315 214.059H317.175L326.362 234.394H323.329L315.153 215.686H316.309L308.133 234.394H305.157ZM309.057 229.31L309.837 226.986H321.22L322.058 229.31H309.057Z" fill="white"/>
<path d="M290.508 234.626C288.967 234.626 287.542 234.374 286.232 233.871C284.942 233.348 283.815 232.622 282.852 231.692C281.908 230.743 281.167 229.639 280.627 228.381C280.088 227.122 279.818 225.737 279.818 224.226C279.818 222.716 280.088 221.331 280.627 220.072C281.167 218.814 281.918 217.719 282.881 216.79C283.844 215.841 284.97 215.114 286.261 214.611C287.571 214.088 288.996 213.826 290.536 213.826C292.097 213.826 293.531 214.098 294.841 214.64C296.17 215.163 297.297 215.947 298.221 216.993L296.344 218.823C295.573 218.01 294.707 217.409 293.744 217.022C292.78 216.615 291.75 216.412 290.652 216.412C289.516 216.412 288.456 216.605 287.474 216.993C286.511 217.38 285.673 217.923 284.961 218.62C284.248 219.317 283.69 220.15 283.285 221.118C282.9 222.067 282.707 223.103 282.707 224.226C282.707 225.35 282.9 226.396 283.285 227.364C283.69 228.313 284.248 229.136 284.961 229.833C285.673 230.53 286.511 231.073 287.474 231.46C288.456 231.847 289.516 232.041 290.652 232.041C291.75 232.041 292.78 231.847 293.744 231.46C294.707 231.053 295.573 230.434 296.344 229.601L298.221 231.431C297.297 232.476 296.17 233.271 294.841 233.813C293.531 234.355 292.087 234.626 290.508 234.626Z" fill="white"/>
<path d="M266.166 234.394V214.059H269.055V234.394H266.166Z" fill="white"/>
<path d="M236.364 234.394V214.059H238.734L252.11 230.763H250.868V214.059H253.757V234.394H251.387L238.011 217.69H239.253V234.394H236.364Z" fill="white"/>
<path d="M214.874 234.626C213.334 234.626 211.899 234.365 210.57 233.842C209.26 233.319 208.124 232.593 207.161 231.663C206.198 230.714 205.447 229.61 204.907 228.351C204.368 227.092 204.098 225.718 204.098 224.226C204.098 222.735 204.368 221.36 204.907 220.101C205.447 218.842 206.198 217.748 207.161 216.818C208.124 215.87 209.26 215.134 210.57 214.611C211.88 214.088 213.314 213.826 214.874 213.826C216.415 213.826 217.831 214.088 219.121 214.611C220.431 215.114 221.568 215.841 222.53 216.79C223.513 217.719 224.264 218.813 224.784 220.072C225.323 221.331 225.593 222.716 225.593 224.226C225.593 225.737 225.323 227.122 224.784 228.381C224.264 229.639 223.513 230.743 222.53 231.692C221.568 232.622 220.431 233.348 219.121 233.871C217.831 234.374 216.415 234.626 214.874 234.626ZM214.874 232.041C215.992 232.041 217.022 231.847 217.966 231.46C218.929 231.073 219.757 230.53 220.45 229.833C221.163 229.116 221.712 228.284 222.097 227.335C222.502 226.386 222.704 225.35 222.704 224.226C222.704 223.103 222.502 222.067 222.097 221.118C221.712 220.169 221.163 219.346 220.45 218.649C219.757 217.932 218.929 217.38 217.966 216.993C217.022 216.605 215.992 216.412 214.874 216.412C213.738 216.412 212.689 216.605 211.726 216.993C210.782 217.38 209.954 217.932 209.241 218.649C208.528 219.346 207.97 220.169 207.565 221.118C207.18 222.067 206.987 223.103 206.987 224.226C206.987 225.35 207.18 226.386 207.565 227.335C207.97 228.284 208.528 229.116 209.241 229.833C209.954 230.53 210.782 231.073 211.726 231.46C212.689 231.847 213.738 232.041 214.874 232.041ZM212.708 212.403L216.637 208.627H220.162L215.308 212.403H212.708Z" fill="white"/>
<path d="M186.202 234.626C184.642 234.626 183.207 234.374 181.897 233.871C180.587 233.348 179.451 232.622 178.488 231.692C177.525 230.743 176.774 229.639 176.235 228.381C175.695 227.122 175.426 225.737 175.426 224.226C175.426 222.716 175.695 221.331 176.235 220.072C176.774 218.814 177.525 217.719 178.488 216.79C179.47 215.841 180.616 215.114 181.926 214.611C183.236 214.088 184.68 213.826 186.26 213.826C187.858 213.826 189.322 214.088 190.651 214.611C191.98 215.134 193.107 215.918 194.031 216.964L192.24 218.765C191.412 217.951 190.506 217.361 189.524 216.993C188.561 216.605 187.512 216.412 186.375 216.412C185.22 216.412 184.141 216.605 183.139 216.993C182.157 217.38 181.3 217.923 180.568 218.62C179.856 219.317 179.297 220.15 178.893 221.118C178.507 222.067 178.315 223.103 178.315 224.226C178.315 225.33 178.507 226.366 178.893 227.335C179.297 228.284 179.856 229.116 180.568 229.833C181.3 230.53 182.157 231.073 183.139 231.46C184.122 231.847 185.191 232.041 186.346 232.041C187.425 232.041 188.455 231.876 189.438 231.547C190.439 231.198 191.363 230.627 192.211 229.833L193.858 232.041C192.856 232.893 191.682 233.542 190.333 233.987C189.004 234.413 187.627 234.626 186.202 234.626ZM191.084 231.663V224.11H193.858V232.041L191.084 231.663Z" fill="white"/>
<path d="M146.777 234.394L155.935 214.059H158.795L167.982 234.394H164.949L156.773 215.686H157.928L149.752 234.394H146.777ZM150.677 229.31L151.457 226.986H162.84L163.677 229.31H150.677Z" fill="white"/>
<path d="M131.558 234.394V216.586H124.625V214.059H141.352V216.586H134.418V234.394H131.558Z" fill="white"/>
<path d="M97.98 234.394L107.138 214.059H109.998L119.185 234.394H116.152L107.976 215.686H109.132L100.956 234.394H97.98ZM101.88 229.31L102.66 226.986H114.043L114.881 229.31H101.88Z" fill="white"/>
<path d="M75.1346 234.394V214.059H83.0217C84.7936 214.059 86.3058 214.34 87.5574 214.901C88.8095 215.463 89.7724 216.276 90.4465 217.342C91.1206 218.407 91.4577 219.675 91.4577 221.147C91.4577 222.619 91.1206 223.887 90.4465 224.953C89.7724 225.998 88.8095 226.812 87.5574 227.393C86.3058 227.955 84.7936 228.235 83.0217 228.235H76.7237L78.0237 226.87V234.394H75.1346ZM78.0237 227.16L76.7237 225.708H82.9351C84.784 225.708 86.1806 225.311 87.1241 224.517C88.087 223.723 88.5686 222.6 88.5686 221.147C88.5686 219.695 88.087 218.571 87.1241 217.777C86.1806 216.983 84.784 216.586 82.9351 216.586H76.7237L78.0237 215.134V227.16Z" fill="white"/>
<path d="M286.333 196.979V158.207H293.344L316.601 186.541H313.433V158.207H321.859V196.979H314.848L291.592 168.646H294.827V196.979H286.333Z" fill="white"/>
<path d="M240.142 174.001H259.691V180.643H240.142V174.001ZM241.288 190.133H262.725V196.979H232.794V158.207H261.983V165.121H241.288V190.133Z" fill="white"/>
<path d="M111.628 196.979V158.207H118.639L141.896 186.541H138.727V158.207H147.154V196.979H140.143L116.886 168.646H120.122V196.979H111.628Z" fill="white"/>
<path d="M76.588 196.979V158.207H85.0816V196.979H76.588Z" fill="white"/>
<path d="M206.826 193.319C205.523 194.359 204.017 195.262 202.309 196.031C200.646 196.753 198.894 197.296 197.051 197.657C195.209 198.064 193.344 198.267 191.456 198.267C187.322 198.267 183.614 197.409 180.333 195.692C177.098 193.929 174.558 191.534 172.716 188.506C170.873 185.479 169.952 182.044 169.952 178.203C169.952 174.362 170.873 170.951 172.716 167.968C174.558 164.94 177.075 162.568 180.266 160.851C183.502 159.088 187.165 158.207 191.254 158.207C194.849 158.207 197.995 158.749 200.692 159.834C203.388 160.873 205.635 162.5 207.433 164.715L201.905 170.069C200.512 168.488 198.939 167.336 197.186 166.612C195.433 165.844 193.501 165.46 191.389 165.46C188.917 165.46 186.693 166.002 184.715 167.087C182.783 168.171 181.255 169.685 180.131 171.628C179.053 173.526 178.513 175.718 178.513 178.203C178.513 180.689 179.075 182.903 180.198 184.846C181.322 186.789 182.872 188.303 184.85 189.388C186.827 190.472 189.097 191.015 191.658 191.015C193.681 191.015 195.523 190.698 197.186 190.065C198.894 189.433 200.489 188.484 201.972 187.219L206.826 193.319ZM198.804 193.387V177.864H206.826V193.319L198.804 193.387Z" fill="white"/>
<defs>
<linearGradient id="paint0_linear_111_274" x1="192.001" y1="9.16089" x2="192.68" y2="132.926" gradientUnits="userSpaceOnUse">
<stop stop-color="#02C2DA"/>
<stop offset="0.5" stop-color="#01A7C3"/>
<stop offset="1" stop-color="#023D75"/>
</linearGradient>
<linearGradient id="paint1_linear_111_274" x1="192.001" y1="9.16089" x2="192.68" y2="132.926" gradientUnits="userSpaceOnUse">
<stop stop-color="#02C2DA"/>
<stop offset="0.5" stop-color="#01A7C3"/>
<stop offset="1" stop-color="#023D75"/>
</linearGradient>
</defs>
</svg>
