<svg width="19" height="19" viewBox="0 0 19 19" fill="none" xmlns="http://www.w3.org/2000/svg">
<path d="M1.10833 19H0V12.7986L5.27778 11.7167L8.33889 14.7778C9.04259 14.3731 9.69809 13.9379 10.3054 13.4721C10.9127 13.0062 11.4711 12.5178 11.9806 12.0069C12.5259 11.4792 13.0361 10.9074 13.5111 10.2917C13.9861 9.67593 14.4171 9.025 14.8042 8.33889L11.7958 5.30417L12.7722 0H19V1.10833C19 3.325 18.525 5.50648 17.575 7.65278C16.625 9.79907 15.2704 11.7519 13.5111 13.5111C11.7519 15.2704 9.79485 16.625 7.64011 17.575C5.48537 18.525 3.30811 19 1.10833 19Z" fill="#06C7F2"/>
</svg>
